<svg xmlns="http://www.w3.org/2000/svg" version="1.1" xmlns:xlink="http://www.w3.org/1999/xlink" xmlns:svgjs="http://svgjs.dev/svgjs" width="128" height="128" viewBox="0 0 128 128"><g transform="matrix(0.8046875,0,0,0.8046875,12.333870967741937,12.333870967741937)"><svg viewBox="0 0 155 155" data-background-color="#051726" preserveAspectRatio="xMidYMid meet" height="128" width="128" xmlns="http://www.w3.org/2000/svg" xmlns:xlink="http://www.w3.org/1999/xlink"><g id="tight-bounds" transform="matrix(1,0,0,1,0.25,0.25)"><svg viewBox="0 0 154.5 154.5" height="154.5" width="154.5"><g><svg viewBox="0 0 154.5 154.5" height="154.5" width="154.5"><g transform="matrix(1,0,0,1,56.72803404914542,50.2438949702109)"><svg viewBox="0 0 41.043931901709165 54.01221005957819" height="54.01221005957819" width="41.043931901709165"><g><svg viewBox="0 0 41.043931901709165 54.01221005957819" height="54.01221005957819" width="41.043931901709165"><g><svg viewBox="0 0 41.043931901709165 54.01221005957819" height="54.01221005957819" width="41.043931901709165"><g id="textblocktransform"><svg viewBox="0 0 41.043931901709165 54.01221005957819" height="54.01221005957819" width="41.043931901709165" id="textblock"><g><svg viewBox="0 0 41.043931901709165 54.01221005957819" height="54.01221005957819" width="41.043931901709165"><g transform="matrix(1,0,0,1,0,0)"><svg width="41.043931901709165" viewBox="-0.3 -36.05 30.7 40.4" height="54.01221005957819" data-palette-color="#ffffff"><path d="M1.8 4.35L1.8 4.35Q0.45 3.6 0.08 2.8-0.3 2-0.3 1.4L-0.3 1.4Q-0.3 0.05 0.7-2.27 1.7-4.6 3.38-7.58 5.05-10.55 7.15-13.8L7.15-13.8Q5.5-13.9 4.13-13.95 2.75-14 1-14L1-14-0.15-14Q0.5-15.7 1.98-16.38 3.45-17.05 5.45-17.05L5.45-17.05Q6.3-17.05 7.23-16.95 8.15-16.85 9.15-16.75L9.15-16.75Q11.65-20.4 14.15-23.75 16.65-27.1 18.88-29.75 21.1-32.4 22.75-34L22.75-34Q24.85-36.05 25.9-36.05L25.9-36.05Q26.55-36.05 27.35-35.55 28.15-35.05 29.05-34.25L29.05-34.25Q28.55-33.85 27.78-32.18 27-30.5 26.13-27.95 25.25-25.4 24.38-22.35 23.5-19.3 22.8-16.18 22.1-13.05 21.68-10.2 21.25-7.35 21.25-5.15L21.25-5.15Q21.25-3.2 21.65-2.2 22.05-1.2 23.05-1.2L23.05-1.2Q24.25-1.2 25.93-2.98 27.6-4.75 29.65-8.65L29.65-8.65 30.4-7.85Q28.9-3.75 26.48-1.15 24.05 1.45 21.35 1.45L21.35 1.45Q19.05 1.45 18.07-0.53 17.1-2.5 17.1-5.95L17.1-5.95Q17.1-7.25 17.28-8.85 17.45-10.45 17.8-12.55L17.8-12.55Q15.6-12.9 13.88-13.1 12.15-13.3 10.6-13.5L10.6-13.5Q8.2-9.25 5.95-4.67 3.7-0.1 1.8 4.35ZM18.25-14.75L18.25-14.75Q18.95-17.85 19.88-20.98 20.8-24.1 21.83-26.98 22.85-29.85 23.8-32.1L23.8-32.1Q22.3-30.95 20.38-28.65 18.45-26.35 16.35-23.15 14.25-19.95 12.1-16.2L12.1-16.2Q13.65-15.85 15.2-15.48 16.75-15.1 18.25-14.75Z" opacity="1" transform="matrix(1,0,0,1,0,0)" fill="#ffffff" class="wordmark-text-0" data-fill-palette-color="primary" id="text-0"></path></svg></g></svg></g></svg></g></svg></g><g></g></svg></g></svg></g><g><path d="M71.339 17.546v0c-0.387-0.22-0.637-0.446-0.751-0.68-0.107-0.227-0.16-0.427-0.161-0.6v0c0-0.394 0.143-0.927 0.43-1.601 0.293-0.674 0.679-1.441 1.159-2.302 0.486-0.861 1.033-1.762 1.639-2.703v0c-0.474-0.026-0.91-0.046-1.311-0.059-0.4-0.013-0.854-0.019-1.361-0.019v0l-0.5 0c0.193-0.494 0.503-0.837 0.93-1.031 0.427-0.194 0.927-0.291 1.5-0.291v0c0.247 0 0.504 0.013 0.771 0.04 0.267 0.026 0.547 0.056 0.84 0.089v0c0.72-1.061 1.443-2.075 2.169-3.043 0.72-0.968 1.403-1.835 2.05-2.603 0.64-0.767 1.2-1.385 1.679-1.852v0c0.607-0.594 1.06-0.891 1.36-0.891v0c0.187 0 0.397 0.073 0.631 0.22 0.234 0.147 0.48 0.337 0.741 0.569v0c-0.147 0.113-0.33 0.414-0.55 0.901-0.226 0.48-0.466 1.091-0.719 1.832-0.253 0.734-0.506 1.544-0.759 2.431-0.253 0.881-0.479 1.771-0.679 2.672-0.206 0.907-0.369 1.774-0.488 2.602-0.12 0.821-0.179 1.551-0.179 2.191v0c0 0.56 0.057 0.987 0.171 1.281 0.114 0.287 0.317 0.43 0.611 0.43v0c0.347 0 0.76-0.257 1.24-0.772 0.487-0.514 1.026-1.335 1.619-2.462v0l0.321 0.35c-0.433 1.181-0.999 2.148-1.699 2.903-0.7 0.754-1.44 1.132-2.221 1.132v0c-0.667 0-1.141-0.286-1.421-0.86-0.281-0.567-0.421-1.35-0.422-2.351v0c0-0.374 0.023-0.794 0.069-1.26 0.053-0.46 0.129-0.994 0.229-1.601v0c-0.634-0.1-1.201-0.179-1.701-0.239-0.5-0.06-0.974-0.119-1.421-0.18v0c-0.693 1.234-1.366 2.512-2.018 3.834-0.653 1.328-1.252 2.636-1.798 3.923zM78.477 9.247v0c0.2-0.894 0.432-1.795 0.698-2.702 0.266-0.901 0.549-1.768 0.849-2.602 0.293-0.834 0.576-1.575 0.849-2.222v0c-0.433 0.334-0.927 0.831-1.48 1.492-0.56 0.667-1.143 1.465-1.749 2.393-0.606 0.928-1.219 1.932-1.839 3.012v0c0.447 0.106 0.894 0.213 1.341 0.32 0.447 0.106 0.891 0.21 1.331 0.309z" fill="#81ffd9" data-fill-palette-color="accent"></path><path d="M71.961 154.5v0c-0.353-0.194-0.577-0.394-0.67-0.601-0.1-0.207-0.15-0.39-0.15-0.55v0c0-0.347 0.131-0.82 0.391-1.421 0.26-0.6 0.608-1.287 1.042-2.06 0.434-0.767 0.921-1.57 1.462-2.41v0c-0.427-0.027-0.817-0.047-1.171-0.061-0.354-0.014-0.757-0.02-1.21-0.021v0l-0.45 0c0.167-0.44 0.444-0.747 0.831-0.92 0.38-0.173 0.827-0.26 1.34-0.259v0c0.22 0 0.45 0.014 0.691 0.04 0.24 0.027 0.49 0.054 0.75 0.08v0c0.648-0.947 1.292-1.854 1.933-2.72 0.647-0.86 1.262-1.633 1.842-2.32 0.574-0.687 1.075-1.237 1.501-1.65v0c0.541-0.527 0.948-0.79 1.222-0.79v0c0.167 0 0.353 0.064 0.56 0.191 0.207 0.127 0.427 0.294 0.66 0.5v0c-0.127 0.107-0.29 0.377-0.491 0.81-0.2 0.433-0.414 0.98-0.641 1.641-0.227 0.654-0.454 1.377-0.682 2.171-0.227 0.787-0.431 1.584-0.611 2.391-0.181 0.807-0.328 1.581-0.442 2.32-0.107 0.734-0.161 1.384-0.161 1.951v0c0 0.507 0.05 0.89 0.149 1.151 0.107 0.254 0.287 0.38 0.54 0.381v0c0.313 0 0.687-0.226 1.121-0.68 0.434-0.46 0.914-1.193 1.442-2.2v0l0.29 0.31c-0.387 1.06-0.895 1.924-1.522 2.59-0.627 0.673-1.288 1.01-1.982 1.01v0c-0.6 0-1.024-0.254-1.27-0.761-0.253-0.514-0.38-1.218-0.379-2.112v0c0-0.334 0.024-0.707 0.071-1.12 0.04-0.414 0.107-0.89 0.201-1.431v0c-0.567-0.094-1.074-0.167-1.521-0.221-0.447-0.054-0.87-0.104-1.27-0.151v0c-0.621 1.094-1.222 2.234-1.803 3.421-0.588 1.18-1.125 2.347-1.613 3.501zM78.338 147.09v0c0.187-0.8 0.398-1.604 0.632-2.411 0.241-0.807 0.494-1.584 0.762-2.331 0.267-0.74 0.524-1.4 0.771-1.98v0c-0.394 0.293-0.838 0.74-1.331 1.34-0.501 0.593-1.021 1.303-1.562 2.13-0.547 0.827-1.098 1.724-1.652 2.69v0c0.4 0.094 0.8 0.187 1.2 0.281 0.4 0.1 0.794 0.194 1.18 0.281z" fill="#81ffd9" data-fill-palette-color="accent"></path><path d="M2.735 80.183c0-3.301 2.676-5.978 5.978-5.978 3.301 0 5.978 2.676 5.977 5.978 0 3.301-2.676 5.978-5.977 5.978-3.301 0-5.978-2.676-5.978-5.978z" fill="#81ffd9" data-fill-palette-color="accent"></path><path d="M139.81 80.183c0-3.301 2.676-5.978 5.977-5.978 3.301 0 5.978 2.676 5.978 5.978 0 3.301-2.676 5.978-5.978 5.978-3.301 0-5.978-2.676-5.977-5.978z" fill="#81ffd9" data-fill-palette-color="accent"></path></g></svg></g><defs></defs></svg><rect width="154.5" height="154.5" fill="none" stroke="none" visibility="hidden"></rect></g></svg></g></svg>