<svg xmlns="http://www.w3.org/2000/svg" version="1.1" xmlns:xlink="http://www.w3.org/1999/xlink" xmlns:svgjs="http://svgjs.dev/svgjs" width="2000" height="1500" viewBox="0 0 2000 1500"><rect width="2000" height="1500" fill="#051726"></rect><g transform="matrix(0.75,0,0,0.75,250,3.410605131648481e-13)"><svg viewBox="0 0 280 280" data-background-color="#051726" preserveAspectRatio="xMidYMid meet" height="2000" width="2000" xmlns="http://www.w3.org/2000/svg" xmlns:xlink="http://www.w3.org/1999/xlink"><g id="tight-bounds" transform="matrix(1,0,0,1,0,-5.684341886080802e-14)"><svg viewBox="0 0 280 280" height="280" width="280"><g><svg viewBox="0 0 280 280" height="280" width="280"><g transform="matrix(1,0,0,1,79.81891196950929,60.80404050710668)"><svg viewBox="0 0 120.36217606098143 158.39191898578665" height="158.39191898578665" width="120.36217606098143"><g><svg viewBox="0 0 120.36217606098143 158.39191898578665" height="158.39191898578665" width="120.36217606098143"><g><svg viewBox="0 0 120.36217606098143 158.39191898578665" height="158.39191898578665" width="120.36217606098143"><g><svg viewBox="0 0 120.36217606098143 158.39191898578665" height="158.39191898578665" width="120.36217606098143"><g id="textblocktransform"><svg viewBox="0 0 120.36217606098143 158.39191898578665" height="158.39191898578665" width="120.36217606098143" id="textblock"><g><svg viewBox="0 0 120.36217606098143 158.39191898578665" height="158.39191898578665" width="120.36217606098143"><g transform="matrix(1,0,0,1,0,0)"><svg width="120.36217606098143" viewBox="-0.30000001192092896 -36.04999923706055 30.69999885559082 40.39999771118164" height="158.39191898578665" data-palette-color="#ffffff"><path d="M1.8 4.35L1.8 4.35Q0.45 3.6 0.08 2.8-0.3 2-0.3 1.4L-0.3 1.4Q-0.3 0.05 0.7-2.27 1.7-4.6 3.38-7.58 5.05-10.55 7.15-13.8L7.15-13.8Q5.5-13.9 4.13-13.95 2.75-14 1-14L1-14-0.15-14Q0.5-15.7 1.98-16.38 3.45-17.05 5.45-17.05L5.45-17.05Q6.3-17.05 7.23-16.95 8.15-16.85 9.15-16.75L9.15-16.75Q11.65-20.4 14.15-23.75 16.65-27.1 18.88-29.75 21.1-32.4 22.75-34L22.75-34Q24.85-36.05 25.9-36.05L25.9-36.05Q26.55-36.05 27.35-35.55 28.15-35.05 29.05-34.25L29.05-34.25Q28.55-33.85 27.78-32.18 27-30.5 26.13-27.95 25.25-25.4 24.38-22.35 23.5-19.3 22.8-16.18 22.1-13.05 21.68-10.2 21.25-7.35 21.25-5.15L21.25-5.15Q21.25-3.2 21.65-2.2 22.05-1.2 23.05-1.2L23.05-1.2Q24.25-1.2 25.93-2.98 27.6-4.75 29.65-8.65L29.65-8.65 30.4-7.85Q28.9-3.75 26.48-1.15 24.05 1.45 21.35 1.45L21.35 1.45Q19.05 1.45 18.07-0.53 17.1-2.5 17.1-5.95L17.1-5.95Q17.1-7.25 17.28-8.85 17.45-10.45 17.8-12.55L17.8-12.55Q15.6-12.9 13.88-13.1 12.15-13.3 10.6-13.5L10.6-13.5Q8.2-9.25 5.95-4.67 3.7-0.1 1.8 4.35ZM18.25-14.75L18.25-14.75Q18.95-17.85 19.88-20.98 20.8-24.1 21.83-26.98 22.85-29.85 23.8-32.1L23.8-32.1Q22.3-30.95 20.38-28.65 18.45-26.35 16.35-23.15 14.25-19.95 12.1-16.2L12.1-16.2Q13.65-15.85 15.2-15.48 16.75-15.1 18.25-14.75Z" opacity="1" transform="matrix(1,0,0,1,0,0)" fill="#ffffff" class="wordmark-text-0" data-fill-palette-color="primary" id="text-0"></path></svg></g></svg></g></svg></g></svg></g><g></g></svg></g></svg></g></svg></g><g><path d="M130.536 28.074v0c-0.627-0.347-1.028-0.707-1.202-1.08-0.174-0.367-0.261-0.69-0.26-0.971v0c0-0.627 0.233-1.478 0.699-2.553 0.46-1.075 1.076-2.303 1.85-3.684 0.773-1.375 1.647-2.817 2.62-4.325v0c-0.761-0.046-1.461-0.079-2.102-0.099-0.634-0.02-1.358-0.029-2.172-0.029v0l-0.791 0c0.3-0.788 0.79-1.338 1.471-1.652 0.68-0.314 1.484-0.471 2.411-0.472v0c0.394 0 0.804 0.023 1.232 0.07 0.434 0.046 0.881 0.093 1.341 0.139v0c1.153-1.695 2.31-3.318 3.47-4.866 1.154-1.555 2.247-2.944 3.281-4.166 1.027-1.228 1.924-2.213 2.691-2.954v0c0.967-0.955 1.694-1.432 2.181-1.432v0c0.3 0 0.637 0.116 1.011 0.35 0.367 0.233 0.761 0.533 1.182 0.9v0c-0.233 0.187-0.53 0.668-0.89 1.442-0.353 0.781-0.733 1.759-1.14 2.933-0.406 1.181-0.813 2.479-1.219 3.894-0.4 1.415-0.763 2.846-1.088 4.294-0.32 1.441-0.579 2.823-0.779 4.145-0.193 1.321-0.289 2.492-0.288 3.513v0c0 0.901 0.091 1.581 0.271 2.042 0.187 0.467 0.514 0.7 0.981 0.7v0c0.554 0 1.218-0.411 1.991-1.232 0.774-0.828 1.634-2.143 2.581-3.945v0l0.53 0.55c-0.7 1.902-1.61 3.454-2.73 4.655-1.12 1.208-2.304 1.813-3.552 1.814v0c-1.068 0.001-1.829-0.456-2.283-1.37-0.448-0.914-0.672-2.172-0.672-3.773v0c0-0.601 0.039-1.271 0.119-2.012 0.08-0.741 0.199-1.598 0.359-2.572v0c-1.014-0.16-1.922-0.286-2.723-0.379-0.801-0.093-1.558-0.186-2.272-0.279v0c-1.113 1.969-2.19 4.015-3.23 6.137-1.04 2.116-2 4.205-2.879 6.267zM141.949 14.796v0c0.326-1.435 0.702-2.876 1.129-4.324 0.426-1.442 0.876-2.83 1.349-4.165 0.48-1.328 0.94-2.516 1.379-3.564v0c-0.7 0.534-1.494 1.335-2.381 2.404-0.894 1.061-1.824 2.336-2.79 3.824-0.973 1.482-1.957 3.09-2.95 4.826v0c0.714 0.16 1.431 0.326 2.152 0.5 0.714 0.173 1.418 0.34 2.112 0.499z" fill="#81ffd9" data-fill-palette-color="accent"></path><path d="M131.535 280v0c-0.56-0.314-0.917-0.634-1.071-0.961-0.16-0.334-0.24-0.624-0.239-0.871v0c0-0.56 0.207-1.321 0.621-2.282 0.414-0.961 0.969-2.058 1.663-3.292 0.695-1.227 1.476-2.515 2.344-3.863v0c-0.681-0.04-1.304-0.071-1.871-0.09-0.567-0.02-1.214-0.031-1.942-0.031v0l-0.711-0.001c0.267-0.707 0.705-1.197 1.312-1.47 0.614-0.28 1.335-0.42 2.162-0.42v0c0.354 0 0.721 0.02 1.101 0.061 0.38 0.04 0.777 0.08 1.191 0.12v0c1.035-1.508 2.07-2.955 3.105-4.342 1.035-1.381 2.013-2.621 2.934-3.722 0.921-1.094 1.726-1.971 2.414-2.631v0c0.868-0.847 1.519-1.27 1.952-1.27v0c0.267 0 0.567 0.104 0.901 0.31 0.334 0.207 0.684 0.474 1.05 0.802v0c-0.207 0.167-0.471 0.597-0.791 1.29-0.321 0.694-0.661 1.568-1.022 2.622-0.361 1.054-0.725 2.212-1.093 3.473-0.361 1.261-0.685 2.539-0.972 3.833-0.294 1.294-0.528 2.532-0.703 3.713-0.174 1.174-0.261 2.219-0.261 3.132v0c0 0.807 0.079 1.418 0.239 1.832 0.167 0.414 0.457 0.621 0.87 0.621v0c0.5 0 1.098-0.366 1.792-1.1 0.688-0.74 1.459-1.914 2.314-3.522v0l0.46 0.491c-0.621 1.695-1.433 3.082-2.434 4.162-1.008 1.074-2.069 1.61-3.183 1.61v0c-0.954 0-1.631-0.411-2.032-1.232-0.407-0.814-0.61-1.935-0.609-3.363v0c0-0.54 0.037-1.141 0.111-1.802 0.074-0.661 0.184-1.425 0.332-2.292v0c-0.914-0.147-1.728-0.261-2.442-0.341-0.714-0.087-1.391-0.171-2.032-0.251v0c-0.995 1.754-1.957 3.579-2.885 5.473-0.935 1.895-1.793 3.763-2.575 5.604zM141.75 268.144v0c0.288-1.281 0.622-2.569 1.002-3.863 0.388-1.288 0.792-2.529 1.213-3.722 0.428-1.188 0.838-2.245 1.233-3.173v0c-0.621 0.473-1.332 1.184-2.133 2.131-0.794 0.954-1.626 2.094-2.494 3.422-0.868 1.321-1.75 2.755-2.644 4.303v0c0.64 0.147 1.284 0.298 1.931 0.451 0.64 0.16 1.271 0.311 1.892 0.451z" fill="#81ffd9" data-fill-palette-color="accent"></path><path d="M4.319 144.701c0-5.283 4.283-9.566 9.566-9.567 5.283 0 9.566 4.283 9.566 9.567 0 5.283-4.283 9.566-9.566 9.566-5.283 0-9.566-4.283-9.566-9.566z" fill="#81ffd9" data-fill-palette-color="accent"></path><path d="M256.549 144.701c0-5.283 4.283-9.566 9.566-9.567 5.283 0 9.566 4.283 9.566 9.567 0 5.283-4.283 9.566-9.566 9.566-5.283 0-9.566-4.283-9.566-9.566z" fill="#81ffd9" data-fill-palette-color="accent"></path></g></svg></g><defs></defs></svg><rect width="280" height="280" fill="none" stroke="none" visibility="hidden"></rect></g></svg></g></svg>